# xmcd
# 
# Track frame offsets:
#     150
#     10263
#     30006
#     44925
#     65574
#     86274
#     99495
#     140369
# 
# Disc length: 1906
# 
# Revision: 1
# Processed by: cddbd v1.5.2PL0 Copyright (c) Steve Scherf et al.
# Submitted via: fre:ac v1.0.17
# 
DISCID=5e077008
DTITLE=Barenaked Ladies - Live In San Diego - December 3, 2006
DYEAR=2006
DGENRE=Rock
TTITLE0=Intro
TTITLE1=Wind It Up
TTITLE2=Sound Of Your Voice
TTITLE3=Easy
TTITLE4=Bank Job
TTITLE5=One Week
TTITLE6=If I Had $1,000,000
TTITLE7=Outro
EXTD=
EXTT0=
EXTT1=
EXTT2=
EXTT3=
EXTT4=
EXTT5=
EXTT6=
EXTT7=
PLAYORDER=
